<?xml version="1.0" encoding="UTF-8"?>
<svg version="1.1" xmlns="http://www.w3.org/2000/svg" width="64" height="64">
<path d="M0 0 C6.8602494 6.8602494 9.54654506 14.09842811 10.5625 23.75 C9.62587519 32.33572738 7.02921134 39.64297811 0.66015625 45.62109375 C-5.88687438 50.81250392 -14.03368443 52.84238491 -22.3046875 52.53125 C-32.11379494 51.18669945 -39.17447938 45.78289447 -45.1875 38.1875 C-49.13629746 30.89741238 -50.07002999 23.38195627 -48.125 15.34765625 C-45.04164054 5.98195188 -40.63545025 0.72878241 -31.9609375 -3.8671875 C-21.25255207 -8.57887709 -9.50578245 -6.12594869 0 0 Z " fill="#BFB194" transform="translate(51.8125,8.8125)"/>
<path d="M0 0 C0.70125 0.144375 1.4025 0.28875 2.125 0.4375 C1.72667969 0.89640625 1.32835937 1.3553125 0.91796875 1.828125 C-4.93605744 8.52736297 -4.93605744 8.52736297 -8.875 16.4375 C-8.215 16.7675 -7.555 17.0975 -6.875 17.4375 C-7.865 17.4375 -8.855 17.4375 -9.875 17.4375 C-10.20952052 24.87128943 -10.01402852 30.63627155 -6.875 37.4375 C-7.04 36.839375 -7.205 36.24125 -7.375 35.625 C-7.875 33.4375 -7.875 33.4375 -7.875 30.4375 C-7.215 30.4375 -6.555 30.4375 -5.875 30.4375 C-6.205 29.7775 -6.535 29.1175 -6.875 28.4375 C-7.535 28.4375 -8.195 28.4375 -8.875 28.4375 C-8.875 27.7775 -8.875 27.1175 -8.875 26.4375 C-8.215 26.4375 -7.555 26.4375 -6.875 26.4375 C-6.875 25.7775 -6.875 25.1175 -6.875 24.4375 C-7.535 24.1075 -8.195 23.7775 -8.875 23.4375 C-8.215 23.4375 -7.555 23.4375 -6.875 23.4375 C-6.875 22.7775 -6.875 22.1175 -6.875 21.4375 C-7.535 21.4375 -8.195 21.4375 -8.875 21.4375 C-8.545 20.7775 -8.215 20.1175 -7.875 19.4375 C-7.4728125 18.57125 -7.4728125 18.57125 -7.0625 17.6875 C-5.53522923 14.7937238 -3.71697056 12.13905682 -1.875 9.4375 C-1.875 12.4375 -1.875 12.4375 -3.4375 16 C-5.32200662 20.87807694 -5.37284728 25.42104105 -3.875 30.4375 C-1.51919562 33.09587252 -1.51919562 33.09587252 1.125 34.4375 C-0.36 34.9325 -0.36 34.9325 -1.875 35.4375 C5.40919801 42.37656439 5.40919801 42.37656439 14.9375 44.5625 C15.989375 44.52125 17.04125 44.48 18.125 44.4375 C15.485 42.7875 12.845 41.1375 10.125 39.4375 C11.61 38.9425 11.61 38.9425 13.125 38.4375 C15.17578125 39.50390625 15.17578125 39.50390625 17.4375 41 C21.2352995 43.30668115 21.2352995 43.30668115 25.6875 42.75 C26.491875 42.316875 27.29625 41.88375 28.125 41.4375 C24.63412907 37.4332657 22.47548061 35.81078935 17.125 35.4375 C17.125 34.1175 17.125 32.7975 17.125 31.4375 C16.135 31.7675 15.145 32.0975 14.125 32.4375 C14.125 33.7575 14.125 35.0775 14.125 36.4375 C12.125 36.4375 12.125 36.4375 9.8125 34.25 C8.925625 33.321875 8.03875 32.39375 7.125 31.4375 C6.238125 30.57125 5.35125 29.705 4.4375 28.8125 C1.14270459 25.42865607 -0.17744956 23.35974834 -0.25 18.6875 C-0.17423472 13.52030792 1.20292268 10.63798615 4.125 6.4375 C4.6875 8.375 4.6875 8.375 5.125 10.4375 C4.795 10.7675 4.465 11.0975 4.125 11.4375 C4.05228259 13.79063555 4.04129132 16.14583668 4.0625 18.5 C4.07152344 19.79035156 4.08054687 21.08070312 4.08984375 22.41015625 C4.10144531 23.40917969 4.11304687 24.40820312 4.125 25.4375 C4.785 25.4375 5.445 25.4375 6.125 25.4375 C6.455 24.7775 6.785 24.1175 7.125 23.4375 C8.115 23.4375 9.105 23.4375 10.125 23.4375 C10.455 24.0975 10.785 24.7575 11.125 25.4375 C11.64449219 25.13714844 12.16398437 24.83679688 12.69921875 24.52734375 C18.46633791 21.38261149 18.46633791 21.38261149 22.125 21.6875 C22.785 21.935 23.445 22.1825 24.125 22.4375 C24.125 23.0975 24.125 23.7575 24.125 24.4375 C24.7025 24.685 25.28 24.9325 25.875 25.1875 C28.125 26.4375 28.125 26.4375 30.0625 28.4375 C32.32027249 30.62685515 34.23625799 31.2972071 37.125 32.4375 C37.785 33.4275 38.445 34.4175 39.125 35.4375 C40.115 33.4575 41.105 31.4775 42.125 29.4375 C42.785 29.7675 43.445 30.0975 44.125 30.4375 C43.7129729 37.16727598 41.49907249 41.26089231 36.58984375 45.8828125 C30.03409825 51.05921675 21.90401573 53.09239244 13.6328125 52.78125 C3.82370506 51.43669945 -3.23697938 46.03289447 -9.25 38.4375 C-13.19879746 31.14741238 -14.13252999 23.63195627 -12.1875 15.59765625 C-10.13818364 9.37285779 -7.23229396 1.10056647 0 0 Z " fill="#796150" transform="translate(15.875,8.5625)"/>
<path d="M0 0 C2.9375 1.5 2.9375 1.5 5 3 C5.33 2.34 5.66 1.68 6 1 C10.35535069 2.16142685 12.64619703 3.07699505 15 7 C13.68 7 12.36 7 11 7 C10.67 7.66 10.34 8.32 10 9 C11.98 9 13.96 9 16 9 C16 9.99 16 10.98 16 12 C16.9590625 12.1546875 16.9590625 12.1546875 17.9375 12.3125 C18.618125 12.539375 19.29875 12.76625 20 13 C21.02835363 16.08506088 21.13368434 18.2694272 21.125 21.5 C21.12886719 22.93859375 21.12886719 22.93859375 21.1328125 24.40625 C21 27 21 27 20 30 C14.51961001 28.84068673 12.18529813 27.60098619 9 23 C8.34 22.67 7.68 22.34 7 22 C7 21.34 7 20.68 7 20 C3.28400809 19.79913557 2.22791555 19.8480563 -1 22 C-2.32 22 -3.64 22 -5 22 C-5.33 22.66 -5.66 23.32 -6 24 C-6.33 23.01 -6.66 22.02 -7 21 C-7.99 20.67 -8.98 20.34 -10 20 C-10.33 18.35 -10.66 16.7 -11 15 C-11.66 15 -12.32 15 -13 15 C-13 13.35 -13 11.7 -13 10 C-12.01 9.67 -11.02 9.34 -10 9 C-8.02 11.31 -6.04 13.62 -4 16 C-3.34 15.34 -2.68 14.68 -2 14 C-2.639375 13.773125 -3.27875 13.54625 -3.9375 13.3125 C-6 12 -6 12 -6.625 9.625 C-6.74875 8.75875 -6.8725 7.8925 -7 7 C-7.94978897 4.84971696 -7.94978897 4.84971696 -9 3 C-9.33 2.34 -9.66 1.68 -10 1 C-6.42365687 -0.19211438 -3.75935317 -0.25926574 0 0 Z " fill="#9BDDFA" transform="translate(33,11)"/>
<path d="M0 0 C0.5625 1.9375 0.5625 1.9375 1 4 C0.67 4.33 0.34 4.66 0 5 C-0.07271741 7.35313555 -0.08370868 9.70833668 -0.0625 12.0625 C-0.05347656 13.35285156 -0.04445313 14.64320312 -0.03515625 15.97265625 C-0.02355469 16.97167969 -0.01195312 17.97070312 0 19 C0.66 19 1.32 19 2 19 C2.33 18.34 2.66 17.68 3 17 C3.99 17 4.98 17 6 17 C6.33 17.66 6.66 18.32 7 19 C7.51949219 18.69964844 8.03898437 18.39929688 8.57421875 18.08984375 C14.34133791 14.94511149 14.34133791 14.94511149 18 15.25 C18.66 15.4975 19.32 15.745 20 16 C20 16.66 20 17.32 20 18 C20.5775 18.2475 21.155 18.495 21.75 18.75 C24 20 24 20 25.9375 22 C28.19527249 24.18935515 30.11125799 24.8597071 33 26 C33.66 26.99 34.32 27.98 35 29 C35.99 27.02 36.98 25.04 38 23 C38.66 23.33 39.32 23.66 40 24 C39.62257767 30.16456476 37.84129692 33.17375515 34 38 C27.78260036 37.87047084 25.36183724 35.81091796 20.93359375 31.58984375 C18.40380796 29.50979765 16.24035194 29.0810088 13 29 C13 27.68 13 26.36 13 25 C12.01 25.33 11.02 25.66 10 26 C10 27.32 10 28.64 10 30 C8 30 8 30 5.6875 27.8125 C4.800625 26.884375 3.91375 25.95625 3 25 C2.113125 24.13375 1.22625 23.2675 0.3125 22.375 C-2.98229541 18.99115607 -4.30244956 16.92224834 -4.375 12.25 C-4.29923472 7.08280792 -2.92207732 4.20048615 0 0 Z " fill="#37333C" transform="translate(20,15)"/>
<path d="M0 0 C0.66 0.33 1.32 0.66 2 1 C1.505 1.78375 1.01 2.5675 0.5 3.375 C-1.75504707 8.82469709 -2.0311518 14.16433254 0 19.75 C2.48486503 22.54547316 5.27393475 24.56364193 8.35546875 26.66796875 C8.89816406 27.10753906 9.44085937 27.54710938 10 28 C10 28.66 10 29.32 10 30 C10.66 29.67 11.32 29.34 12 29 C11.67 27.68 11.34 26.36 11 25 C12.32 25 13.64 25 15 25 C15 26.32 15 27.64 15 29 C15.86625 28.896875 16.7325 28.79375 17.625 28.6875 C22.23756587 29.11458943 23.69294459 30.85042342 27 34 C24.81972404 36.50731735 23.32755099 37.61834541 20 38 C17.7109375 37.00390625 17.7109375 37.00390625 15.375 35.5625 C12.39141563 33.57692656 12.39141563 33.57692656 9 33 C9.86625 33.52400391 9.86625 33.52400391 10.75 34.05859375 C11.4925 34.51363281 12.235 34.96867187 13 35.4375 C13.7425 35.88996094 14.485 36.34242187 15.25 36.80859375 C15.8275 37.20175781 16.405 37.59492187 17 38 C17 38.33 17 38.66 17 39 C10.66352767 39.45260517 6.23960531 38.74103507 1 35 C-1.20676868 32.80731708 -3.14804937 30.49732736 -5 28 C-4.34 27.67 -3.68 27.34 -3 27 C-3.9590625 26.40058594 -3.9590625 26.40058594 -4.9375 25.7890625 C-7.43564103 23.62211441 -7.67073117 22.61624002 -8 19.375 C-8.43853477 12.38903919 -5.80116008 7.45157899 -1.75 1.9375 C-1.1725 1.298125 -0.595 0.65875 0 0 Z " fill="#95776E" transform="translate(18,15)"/>
<path d="M0 0 C0 0.33 0 0.66 0 1 C-3.3 1 -6.6 1 -10 1 C-9.67 1.99 -9.34 2.98 -9 4 C-9.66 4 -10.32 4 -11 4 C-11 3.34 -11 2.68 -11 2 C-12.65 2.66 -14.3 3.32 -16 4 C-15.34 4 -14.68 4 -14 4 C-14 4.66 -14 5.32 -14 6 C-13.34 5.67 -12.68 5.34 -12 5 C-9.66831782 4.90284658 -7.33370043 4.87021783 -5 4.875 C-3.1128125 4.87113281 -3.1128125 4.87113281 -1.1875 4.8671875 C2 5 2 5 4 6 C4 5.34 4 4.68 4 4 C4.66 4 5.32 4 6 4 C6.66 5.65 7.32 7.3 8 9 C6.02 8.34 4.04 7.68 2 7 C1.34 8.32 0.68 9.64 0 11 C-0.515625 10.34 -1.03125 9.68 -1.5625 9 C-4.82641319 6.32191738 -6.88399525 6.61888845 -11 7 C-11.99 7.495 -11.99 7.495 -13 8 C-12.505 8.37125 -12.01 8.7425 -11.5 9.125 C-10 11 -10 11 -10.0625 14 C-10.041875 14.99 -10.02125 15.98 -10 17 C-8.11922127 18.91256712 -8.11922127 18.91256712 -6 20 C-6.33 20.99 -6.66 21.98 -7 23 C-10 21 -10 21 -12.5625 18.375 C-14.6715368 15.76737842 -14.6715368 15.76737842 -17 16 C-17 17.65 -17 19.3 -17 21 C-16.34 21 -15.68 21 -15 21 C-13.875 23.8125 -13.875 23.8125 -13 27 C-13.66 27.99 -14.32 28.98 -15 30 C-15.66 29.67 -16.32 29.34 -17 29 C-18.55128484 22.63973216 -18.98416262 15.96832525 -16 10 C-22.84826048 13.48873647 -25.36688587 16.70829934 -28 24 C-28 24.33 -28 24.66 -28 25 C-28 26.66666667 -28 28.33333333 -28 30 C-28.66 30 -29.32 30 -30 30 C-30 30.66 -30 31.32 -30 32 C-28.515 31.505 -28.515 31.505 -27 31 C-27 31.99 -27 32.98 -27 34 C-27.66 34 -28.32 34 -29 34 C-28.01 36.97 -27.02 39.94 -26 43 C-30.61431721 39.00092508 -31.75497012 35.36862213 -32.375 29.375 C-32.12007976 21.07415979 -29.02932982 13.23589263 -23.3671875 7.20703125 C-22 6 -22 6 -20 5 C-20.66 4.34 -21.32 3.68 -22 3 C-15.22781327 -2.45078444 -8.11146942 -0.96043139 0 0 Z " fill="#A58D72" transform="translate(37,5)"/>
<path d="M0 0 C0.66 0.33 1.32 0.66 2 1 C1.505 1.78375 1.01 2.5675 0.5 3.375 C-1.75504707 8.82469709 -2.0311518 14.16433254 0 19.75 C2.93069195 23.04702845 6.38255892 25.49958348 10 28 C6.15047502 29.28317499 4.30411791 28.50690379 0.4375 27.375 C-0.71878906 27.05273438 -1.87507813 26.73046875 -3.06640625 26.3984375 C-6 25 -6 25 -7.41015625 22.62109375 C-8.87071864 16.13078009 -7.15152734 10.50252869 -4.1328125 4.7265625 C-2.93298062 2.89785322 -1.59700911 1.48749991 0 0 Z " fill="#F3F1E6" transform="translate(18,15)"/>
<path d="M0 0 C4.31354337 0.86087702 6.13422493 2.61985505 9 6 C12.94977906 13.89955812 14.10154171 21.33114043 12 30 C11.34 29.34 10.68 28.68 10 28 C9.01 29.98 8.02 31.96 7 34 C6.01 33.34 5.02 32.68 4 32 C3.65942383 30.02880859 3.65942383 30.02880859 3.70703125 27.6484375 C3.71669922 26.79765625 3.72636719 25.946875 3.73632812 25.0703125 C3.76146484 24.18085937 3.78660156 23.29140625 3.8125 22.375 C3.83280273 21.02921875 3.83280273 21.02921875 3.85351562 19.65625 C3.88893075 17.43690211 3.93831539 15.21874812 4 13 C5.32 13.66 6.64 14.32 8 15 C7.67 15.33 7.34 15.66 7 16 C6.92851801 17.35243917 6.91600546 18.70834367 6.9375 20.0625 C6.958125 21.361875 6.97875 22.66125 7 24 C7.66 24 8.32 24 9 24 C9 23.34 9 22.68 9 22 C8.34 21.67 7.68 21.34 7 21 C7.66 21 8.32 21 9 21 C9 20.34 9 19.68 9 19 C8.34 19 7.68 19 7 19 C7 18.34 7 17.68 7 17 C7.66 17 8.32 17 9 17 C6.70160755 10.61842989 4.18768997 5.35093719 0 0 Z " fill="#A0866C" transform="translate(49,11)"/>
<path d="M0 0 C0.886875 0.78375 1.77375 1.5675 2.6875 2.375 C5.32789473 4.59717618 7.77995357 5.74775972 11 7 C11.99 8.485 11.99 8.485 13 10 C13.99 8.02 14.98 6.04 16 4 C16.66 4.33 17.32 4.66 18 5 C17.62257767 11.16456476 15.84129692 14.17375515 12 19 C7.18227479 14.43583927 7.18227479 14.43583927 6.12109375 11.8984375 C5.15466862 9.7989261 5.15466862 9.7989261 2.87109375 9.2421875 C2.06800781 9.12101562 1.26492187 8.99984375 0.4375 8.875 C-2.00390625 8.4921875 -2.00390625 8.4921875 -4 8 C-4.33 7.34 -4.66 6.68 -5 6 C-4.01 5.34 -3.02 4.68 -2 4 C-0.80767387 1.94996045 -0.80767387 1.94996045 0 0 Z " fill="#7D6048" transform="translate(42,34)"/>
<path d="M0 0 C3.125 -0.1875 3.125 -0.1875 6 0 C6.33 0.99 6.66 1.98 7 3 C7.66 3 8.32 3 9 3 C9.02712066 4.43739513 9.04645067 5.87493863 9.0625 7.3125 C9.07410156 8.11300781 9.08570313 8.91351563 9.09765625 9.73828125 C9 12 9 12 8 15 C4.02109996 14.15830961 1.51686334 13.47809859 -1.5 10.6875 C-3 8 -3 8 -2.875 5.375 C-2 3 -2 3 0 0 Z " fill="#E3DCDC" transform="translate(45,26)"/>
<path d="M0 0 C4.35535069 1.16142685 6.64619703 2.07699505 9 6 C7.68 6 6.36 6 5 6 C4.67 6.66 4.34 7.32 4 8 C5.98 8 7.96 8 10 8 C10 8.99 10 9.98 10 11 C11.32 11.33 12.64 11.66 14 12 C14.33 13.65 14.66 15.3 15 17 C14.34 17 13.68 17 13 17 C12.62875 16.360625 12.2575 15.72125 11.875 15.0625 C9.67365872 12.64102459 9.01457669 12.67213851 5.875 12.375 C3.956875 12.189375 3.956875 12.189375 2 12 C1.67 11.34 1.34 10.68 1 10 C-1.30965848 8.94647157 -3.6429774 7.94280904 -6 7 C-5.67 6.34 -5.34 5.68 -5 5 C-4.34 5 -3.68 5 -3 5 C-2.67 4.01 -2.34 3.02 -2 2 C-1.34 1.34 -0.68 0.68 0 0 Z " fill="#C8D5DD" transform="translate(39,12)"/>
<path d="M0 0 C5.75 4.75 5.75 4.75 8 7 C8.66 6.34 9.32 5.68 10 5 C11.65 6.65 13.3 8.3 15 10 C11.55930376 12.29379749 10.27709699 13 6 13 C5.67 13.66 5.34 14.32 5 15 C4.67 14.01 4.34 13.02 4 12 C3.01 11.67 2.02 11.34 1 11 C0.67 9.35 0.34 7.7 0 6 C-0.66 6 -1.32 6 -2 6 C-2 4.35 -2 2.7 -2 1 C-1.34 0.67 -0.68 0.34 0 0 Z " fill="#ACB6C1" transform="translate(22,20)"/>
<path d="M0 0 C0.66 0 1.32 0 2 0 C1.67 1.98 1.34 3.96 1 6 C0.01 6.33 -0.98 6.66 -2 7 C-1.41992188 7.13535156 -0.83984375 7.27070312 -0.2421875 7.41015625 C5.89354423 9.10102621 9.62671463 11.51014341 13 17 C13 17.66 13 18.32 13 19 C7.28336126 18.85708403 4.90959838 16.29575694 0.96875 12.58984375 C-1.58427669 10.52817339 -3.74989574 10.08125261 -7 10 C-6.34 9.67 -5.68 9.34 -5 9 C-5.33 8.01 -5.66 7.02 -6 6 C-5.195625 5.38125 -4.39125 4.7625 -3.5625 4.125 C-0.96125481 2.25835959 -0.96125481 2.25835959 0 0 Z " fill="#2A2630" transform="translate(40,34)"/>
<path d="M0 0 C0 3 0 3 -1.5625 6.5625 C-3.44700662 11.44057694 -3.49784728 15.98354105 -2 21 C0.35580438 23.65837252 0.35580438 23.65837252 3 25 C1.68 25 0.36 25 -1 25 C-0.505 25.7425 -0.01 26.485 0.5 27.25 C2 30 2 30 2 34 C3.4166747 35.7511573 3.4166747 35.7511573 5 37 C0.79021917 35.52088782 -1.94005151 34.16351625 -3.94921875 30.0625 C-4.19285156 29.381875 -4.43648437 28.70125 -4.6875 28 C-4.93886719 27.319375 -5.19023437 26.63875 -5.44921875 25.9375 C-6 24 -6 24 -6 21 C-5.34 21 -4.68 21 -4 21 C-4.33 20.34 -4.66 19.68 -5 19 C-5.66 19 -6.32 19 -7 19 C-7 18.34 -7 17.68 -7 17 C-6.34 17 -5.68 17 -5 17 C-5 16.34 -5 15.68 -5 15 C-5.66 14.67 -6.32 14.34 -7 14 C-6.34 14 -5.68 14 -5 14 C-5 13.34 -5 12.68 -5 12 C-5.66 12 -6.32 12 -7 12 C-6.67 11.34 -6.34 10.68 -6 10 C-5.731875 9.4225 -5.46375 8.845 -5.1875 8.25 C-3.66022923 5.3562238 -1.84197056 2.70155682 0 0 Z " fill="#8B7A6B" transform="translate(14,18)"/>
<path d="M0 0 C2.40739448 0.96295779 3.74842248 1.61601326 5.1875 3.8125 C6 6 6 6 6.4375 8.625 C6.80002845 11.3591054 6.80002845 11.3591054 10 13 C9.67 13.99 9.34 14.98 9 16 C6 14 6 14 3.4375 11.375 C1.3284632 8.76737842 1.3284632 8.76737842 -1 9 C-1 10.65 -1 12.3 -1 14 C-0.34 14 0.32 14 1 14 C2.125 16.8125 2.125 16.8125 3 20 C2.34 20.99 1.68 21.98 1 23 C0.34 22.67 -0.32 22.34 -1 22 C-2.55128484 15.63973216 -2.98416262 8.96832525 0 3 C-0.99 2.67 -1.98 2.34 -3 2 C-2.01 1.34 -1.02 0.68 0 0 Z " fill="#6E8089" transform="translate(21,12)"/>
<path d="M0 0 C5.38981923 -0.51331612 8.82492543 1.14753617 13.3125 3.875 C13.94478516 4.23980469 14.57707031 4.60460938 15.22851562 4.98046875 C19.8534147 7.70682941 19.8534147 7.70682941 21 10 C14.66077121 10.45280206 10.26273809 9.70299269 5 6 C3.08325559 4.09717867 1.59705376 2.19594892 0 0 Z " fill="#C6C7CA" transform="translate(14,44)"/>
<path d="M0 0 C4.94441972 3.59594161 8.01780125 7.13502368 10 13 C10 14.32 10 15.64 10 17 C9.34 17 8.68 17 8 17 C8 17.66 8 18.32 8 19 C8.66 19 9.32 19 10 19 C10 20.65 10 22.3 10 24 C9.34 24 8.68 24 8 24 C7.67 24.99 7.34 25.98 7 27 C7.01160156 26.21753906 7.02320313 25.43507813 7.03515625 24.62890625 C7.04417969 23.61699219 7.05320312 22.60507812 7.0625 21.5625 C7.07410156 20.55316406 7.08570313 19.54382813 7.09765625 18.50390625 C7.28612676 16.05978933 7.28612676 16.05978933 6 15 C4.95263844 13.24472647 3.93656671 11.47070417 2.9375 9.6875 C2.38964844 8.72199219 1.84179688 7.75648437 1.27734375 6.76171875 C0 4 0 4 0 0 Z " fill="#DCC9AD" transform="translate(48,11)"/>
<path d="M0 0 C3.39298232 0.41127058 5.5851399 1.31709718 8.375 3.1875 C10.12945306 4.3305575 10.12945306 4.3305575 12 5 C14.34406932 4.37212429 16.67793475 3.70491267 19 3 C21.60945946 3.67917438 23.59467607 4.72370567 26 6 C23.08291076 7.98362069 21.87619096 7.9876191 18.25 7.625 C17.1775 7.41875 16.105 7.2125 15 7 C15.66 7.66 16.32 8.32 17 9 C14.69 9.33 12.38 9.66 10 10 C10 9.67 10 9.34 10 9 C7.36 8.67 4.72 8.34 2 8 C2 7.67 2 7.34 2 7 C3.98 6.67 5.96 6.34 8 6 C7.4225 5.65066406 6.845 5.30132812 6.25 4.94140625 C5.13625 4.25884766 5.13625 4.25884766 4 3.5625 C3.2575 3.11003906 2.515 2.65757813 1.75 2.19140625 C1.1725 1.79824219 0.595 1.40507813 0 1 C0 0.67 0 0.34 0 0 Z " fill="#654B40" transform="translate(26,47)"/>
<path d="M0 0 C0.66 0.33 1.32 0.66 2 1 C1.505 1.78375 1.01 2.5675 0.5 3.375 C-1.40672919 7.98292888 -1.62683856 12.06669912 -1 17 C-0.05870096 19.23959489 -0.05870096 19.23959489 1 21 C0.01 21 -0.98 21 -2 21 C-2.268125 20.38125 -2.53625 19.7625 -2.8125 19.125 C-3.95556848 16.7004767 -3.95556848 16.7004767 -7 15 C-6.72694671 8.44672101 -4.18788859 4.93069452 0 0 Z " fill="#96D3F0" transform="translate(18,15)"/>
<path d="M0 0 C1.98 0.99 1.98 0.99 4 2 C3.67 2.33 3.34 2.66 3 3 C2.92851801 4.35243917 2.91600546 5.70834367 2.9375 7.0625 C2.958125 8.361875 2.97875 9.66125 3 11 C3.99 11 4.98 11 6 11 C6 8.69 6 6.38 6 4 C6.33 4 6.66 4 7 4 C7.33 8.29 7.66 12.58 8 17 C7.34 16.34 6.68 15.68 6 15 C5.01 16.98 4.02 18.96 3 21 C2.01 20.34 1.02 19.68 0 19 C-0.34057617 17.02880859 -0.34057617 17.02880859 -0.29296875 14.6484375 C-0.28330078 13.79765625 -0.27363281 12.946875 -0.26367188 12.0703125 C-0.23853516 11.18085937 -0.21339844 10.29140625 -0.1875 9.375 C-0.17396484 8.4778125 -0.16042969 7.580625 -0.14648438 6.65625 C-0.11106925 4.43690211 -0.06168461 2.21874812 0 0 Z " fill="#9C8976" transform="translate(53,24)"/>
<path d="M0 0 C-0.39832031 0.45890625 -0.79664063 0.9178125 -1.20703125 1.390625 C-7.06105744 8.08986297 -7.06105744 8.08986297 -11 16 C-10.34 16.33 -9.68 16.66 -9 17 C-9.99 17 -10.98 17 -12 17 C-12.33 18.32 -12.66 19.64 -13 21 C-14.69857857 14.98964505 -13.38165708 11.65254464 -10.39453125 6.24609375 C-7.48226713 1.55547227 -5.724475 -0.63605278 0 0 Z " fill="#95765D" transform="translate(18,9)"/>
<path d="M0 0 C1.98 1.65 3.96 3.3 6 5 C5.67 5.99 5.34 6.98 5 8 C6.32 8.66 7.64 9.32 9 10 C8.67 10.66 8.34 11.32 8 12 C7.01 12 6.02 12 5 12 C5 11.34 5 10.68 5 10 C4.36191406 9.87882812 3.72382812 9.75765625 3.06640625 9.6328125 C1.82697266 9.38144531 1.82697266 9.38144531 0.5625 9.125 C-0.26121094 8.96257813 -1.08492187 8.80015625 -1.93359375 8.6328125 C-2.61550781 8.42398438 -3.29742187 8.21515625 -4 8 C-4.33 7.34 -4.66 6.68 -5 6 C-4.01 5.34 -3.02 4.68 -2 4 C-0.80767387 1.94996045 -0.80767387 1.94996045 0 0 Z " fill="#5E6574" transform="translate(42,34)"/>
<path d="M0 0 C3.9437753 0.73372564 5.7701197 2.78615786 8.6875 5.5 C7.5 7.0625 7.5 7.0625 5.6875 8.5 C1.19999274 8.37871602 -1.75906208 6.06178082 -5.3125 3.5 C-3.63559038 1.38179837 -2.67300594 0.57794723 0 0 Z " fill="#E0DEDD" transform="translate(36.3125,43.5)"/>
<path d="M0 0 C0.33 0 0.66 0 1 0 C1.07476562 1.05058594 1.14953125 2.10117187 1.2265625 3.18359375 C2.2426404 14.820666 5.23294188 22.00650583 14 30 C8.85552607 29.07489723 6.08909214 26.06384047 3 22 C-0.50559809 15.3056363 -1.94485931 8.52789548 -1 1 C-0.67 0.67 -0.34 0.34 0 0 Z " fill="#6F5747" transform="translate(4,26)"/>
<path d="M0 0 C0.33 0.99 0.66 1.98 1 3 C0.01 3.66 -0.98 4.32 -2 5 C-1.34 5 -0.68 5 0 5 C0 6.65 0 8.3 0 10 C-0.66 10 -1.32 10 -2 10 C-2 10.66 -2 11.32 -2 12 C-1.01 11.67 -0.02 11.34 1 11 C1 11.99 1 12.98 1 14 C0.34 14 -0.32 14 -1 14 C-0.01 16.97 0.98 19.94 2 23 C-1.99874309 19.53442266 -3.75101258 16.30706373 -4.15234375 10.9765625 C-4.27091812 3.88845027 -4.27091812 3.88845027 -3 1 C-2.01 0.67 -1.02 0.34 0 0 Z " fill="#A28767" transform="translate(9,25)"/>
<path d="M0 0 C0 0.66 0 1.32 0 2 C0.66 2.33 1.32 2.66 2 3 C1.34 3 0.68 3 0 3 C-0.33 3.99 -0.66 4.98 -1 6 C-1.66 5.67 -2.32 5.34 -3 5 C-2.67 4.01 -2.34 3.02 -2 2 C-2.680625 2.495 -3.36125 2.99 -4.0625 3.5 C-7.59465009 5.30365111 -10.08636991 5.23021353 -14 5 C-14.66 3.68 -15.32 2.36 -16 1 C-15.34 1 -14.68 1 -14 1 C-13.67 1.66 -13.34 2.32 -13 3 C-12.22076172 2.54947266 -12.22076172 2.54947266 -11.42578125 2.08984375 C-4.49912127 -1.68717047 -4.49912127 -1.68717047 0 0 Z " fill="#6D7685" transform="translate(40,31)"/>
<path d="M0 0 C0.928125 0.0825 1.85625 0.165 2.8125 0.25 C3.1425 0.91 3.4725 1.57 3.8125 2.25 C2.8225 2.91 1.8325 3.57 0.8125 4.25 C0.8125 5.24 0.8125 6.23 0.8125 7.25 C-1.1675 7.91 -3.1475 8.57 -5.1875 9.25 C-6.09741047 6.27211118 -6.44710381 4.81502006 -5.125 1.9375 C-3.1875 0.25 -3.1875 0.25 0 0 Z " fill="#F8F8E9" transform="translate(48.1875,25.75)"/>
<path d="M0 0 C1.32 0.66 2.64 1.32 4 2 C3.9175 3.03125 3.835 4.0625 3.75 5.125 C4.03807561 9.59017199 5.28644717 11.52326044 8 15 C7.67 15.66 7.34 16.32 7 17 C6.01 16.67 5.02 16.34 4 16 C4 15.01 4 14.02 4 13 C2.02 13 0.04 13 -2 13 C-1.67 12.01 -1.34 11.02 -1 10 C-0.01 10 0.98 10 2 10 C1.34 9.01 0.68 8.02 0 7 C0.32380126 5.66431979 0.65657551 4.33076989 1 3 C0.34 2.34 -0.32 1.68 -1 1 C-0.67 0.67 -0.34 0.34 0 0 Z " fill="#96A4B1" transform="translate(45,7)"/>
<path d="M0 0 C0.763125 0.20625 1.52625 0.4125 2.3125 0.625 C2.3125 1.285 2.3125 1.945 2.3125 2.625 C-6.11397735 6.04444009 -14.07811098 7.2500059 -22.6875 3.625 C-19.59271121 2.59340374 -18.16118607 2.65017138 -15 3.0625 C-14.19175781 3.16433594 -13.38351563 3.26617187 -12.55078125 3.37109375 C-11.93589844 3.45488281 -11.32101563 3.53867187 -10.6875 3.625 C-11.3475 2.965 -12.0075 2.305 -12.6875 1.625 C-10.35416667 1.625 -8.02083333 1.625 -5.6875 1.625 C-2.6875 -0.375 -2.6875 -0.375 0 0 Z " fill="#A88E72" transform="translate(43.6875,53.375)"/>
<path d="M0 0 C4 0 4 0 5.703125 1.4609375 C6.46882813 2.40839844 6.46882813 2.40839844 7.25 3.375 C8.03117187 4.31472656 8.03117187 4.31472656 8.828125 5.2734375 C10 7 10 7 10 9 C6.51072308 8.68279301 4.44149146 8.33692769 1.625 6.1875 C0 4 0 4 0 0 Z " fill="#1D121B" transform="translate(43,44)"/>
<path d="M0 0 C0.99 0 1.98 0 3 0 C4.38671875 1.609375 4.38671875 1.609375 5.6875 3.75 C6.12449219 4.44609375 6.56148437 5.1421875 7.01171875 5.859375 C8 8 8 8 8 12 C9.4166747 13.7511573 9.4166747 13.7511573 11 15 C7.5970425 13.80436628 5.29953632 12.79943551 3 10 C2.05078125 7.51953125 2.05078125 7.51953125 1.3125 4.8125 C1.06113281 3.91144531 0.80976563 3.01039062 0.55078125 2.08203125 C0.36902344 1.39496094 0.18726563 0.70789062 0 0 Z " fill="#917D69" transform="translate(8,40)"/>
<path d="M0 0 C0.66 0 1.32 0 2 0 C2.66 1.65 3.32 3.3 4 5 C2.02 4.34 0.04 3.68 -2 3 C-2.66 4.32 -3.32 5.64 -4 7 C-4.45375 6.34 -4.9075 5.68 -5.375 5 C-9.33232033 1.9848988 -13.19004145 2.66954483 -18 3 C-16 1 -16 1 -12.8125 0.76953125 C-11.554375 0.78371094 -10.29625 0.79789063 -9 0.8125 C-7.741875 0.81894531 -6.48375 0.82539063 -5.1875 0.83203125 C-2 1 -2 1 0 2 C0 1.34 0 0.68 0 0 Z " fill="#8A8E93" transform="translate(41,9)"/>
<path d="M0 0 C0.66 0.66 1.32 1.32 2 2 C1.71730916 5.9576718 -0.63783164 8.94307624 -3 12 C-3.99 12 -4.98 12 -6 12 C-4.81819916 6.97734643 -3.55007718 3.9050849 0 0 Z " fill="#C9B7A0" transform="translate(13,13)"/>
<path d="M0 0 C4.35535069 1.16142685 6.64619703 2.07699505 9 6 C4.545 6.495 4.545 6.495 0 7 C-1.125 2.25 -1.125 2.25 0 0 Z " fill="#A0B2C5" transform="translate(39,12)"/>
<path d="M0 0 C0.66 0 1.32 0 2 0 C2.125 7.625 2.125 7.625 1 11 C-0.98 10.34 -2.96 9.68 -5 9 C-4.34 7.35 -3.68 5.7 -3 4 C-2.01 4 -1.02 4 0 4 C0 2.68 0 1.36 0 0 Z " fill="#D0D0D5" transform="translate(52,30)"/>
<path d="M0 0 C1.98 1.65 3.96 3.3 6 5 C5.01 6.485 5.01 6.485 4 8 C2.68 8 1.36 8 0 8 C0 7.34 0 6.68 0 6 C-0.66 6 -1.32 6 -2 6 C-2 4.35 -2 2.7 -2 1 C-1.34 0.67 -0.68 0.34 0 0 Z " fill="#B5A9C2" transform="translate(22,20)"/>
<path d="M0 0 C1.9375 1.5 1.9375 1.5 3 3 C0.23735711 3.59732819 -2.16032769 4 -5 4 C-4.67 5.32 -4.34 6.64 -4 8 C-7 7 -7 7 -8.125 5.0625 C-8.41375 4.381875 -8.7025 3.70125 -9 3 C-9.33 2.34 -9.66 1.68 -10 1 C-6.44646071 -0.1845131 -3.72986522 -0.26641894 0 0 Z " fill="#9DBDD3" transform="translate(33,11)"/>
<path d="M0 0 C1.65 0 3.3 0 5 0 C1.4420175 4.69006784 -3.42118648 5.96493711 -9 7 C-12.625 6.6875 -12.625 6.6875 -15 6 C-15 5.67 -15 5.34 -15 5 C-7.575 3.515 -7.575 3.515 0 2 C0 1.34 0 0.68 0 0 Z " fill="#6C5544" transform="translate(46,54)"/>
<path d="M0 0 C-0.99 1.485 -0.99 1.485 -2 3 C-2 3.66 -2 4.32 -2 5 C-2.66 5 -3.32 5 -4 5 C-4 4.01 -4 3.02 -4 2 C-4.99 2.33 -5.98 2.66 -7 3 C-7 4.32 -7 5.64 -7 7 C-7.66 7 -8.32 7 -9 7 C-9.66 5.68 -10.32 4.36 -11 3 C-10.34 3 -9.68 3 -9 3 C-8.67 2.01 -8.34 1.02 -8 0 C-2.25 -1.125 -2.25 -1.125 0 0 Z " fill="#4D4C56" transform="translate(37,38)"/>
<path d="M0 0 C1.33332095 2.6666419 0.67102033 4.16680303 0 7 C0.66 7 1.32 7 2 7 C3.125 9.8125 3.125 9.8125 4 13 C3.01 14.485 3.01 14.485 2 16 C1.34 15.67 0.68 15.34 0 15 C-1.14176362 10.31876916 -1.1622228 5.78557255 -1 1 C-0.67 0.67 -0.34 0.34 0 0 Z " fill="#60687A" transform="translate(20,19)"/>
<path d="M0 0 C2.31 0.66 4.62 1.32 7 2 C7.33 3.65 7.66 5.3 8 7 C5.525 6.01 5.525 6.01 3 5 C3.33 4.01 3.66 3.02 4 2 C3.34 2 2.68 2 2 2 C2 2.66 2 3.32 2 4 C-0.31 3.67 -2.62 3.34 -5 3 C-4.360625 2.690625 -3.72125 2.38125 -3.0625 2.0625 C-1.06389179 1.1654837 -1.06389179 1.1654837 0 0 Z " fill="#DCCBAC" transform="translate(39,7)"/>
<path d="M0 0 C5.625 -0.25 5.625 -0.25 9 2 C8.67 3.32 8.34 4.64 8 6 C4.08597051 4.73058503 2.20927127 3.48832306 0 0 Z " fill="#C9CCD4" transform="translate(14,44)"/>
<path d="M0 0 C-0.33 1.32 -0.66 2.64 -1 4 C-2.43333021 4.39063507 -3.87192679 4.76198474 -5.3125 5.125 C-6.51326172 5.43824219 -6.51326172 5.43824219 -7.73828125 5.7578125 C-10 6 -10 6 -13 4 C-12.67 3.34 -12.34 2.68 -12 2 C-10.3603125 2.061875 -10.3603125 2.061875 -8.6875 2.125 C-4.96124119 1.99868614 -3.40698216 0 0 0 Z " fill="#212432" transform="translate(38,33)"/>
<path d="M0 0 C0.5625 1.9375 0.5625 1.9375 1 4 C0.67 4.33 0.34 4.66 0 5 C-0.07258946 7.18639453 -0.08373783 9.37500389 -0.0625 11.5625 C-0.05347656 12.76003906 -0.04445313 13.95757812 -0.03515625 15.19140625 C-0.02355469 16.11824219 -0.01195312 17.04507813 0 18 C-1.76462683 14.91190305 -2 13.76687864 -2 10 C-2.66 10 -3.32 10 -4 10 C-3.43454163 6.04179141 -2.19097652 3.3340947 0 0 Z " fill="#474D5E" transform="translate(20,15)"/>
<path d="M0 0 C2.97 0.495 2.97 0.495 6 1 C6.33 2.65 6.66 4.3 7 6 C5.35 6.66 3.7 7.32 2 8 C1.67 7.34 1.34 6.68 1 6 C1.66 6 2.32 6 3 6 C2.67 5.01 2.34 4.02 2 3 C1.34 2.67 0.68 2.34 0 2 C0 1.34 0 0.68 0 0 Z " fill="#48464F" transform="translate(47,40)"/>
<path d="M0 0 C2 4 2 4 2 6 C2.66 6 3.32 6 4 6 C4 6.66 4 7.32 4 8 C5.32 8.66 6.64 9.32 8 10 C8 10.66 8 11.32 8 12 C5.69 11.34 3.38 10.68 1 10 C0.67 6.7 0.34 3.4 0 0 Z " fill="#DACDC6" transform="translate(10,29)"/>
<path d="M0 0 C1.11375 0.598125 2.2275 1.19625 3.375 1.8125 C4.00148438 2.14894531 4.62796875 2.48539063 5.2734375 2.83203125 C7 4 7 4 9 7 C5.625 6.6875 5.625 6.6875 2 6 C0 3 0 3 0 0 Z " fill="#B3DEEA" transform="translate(19,37)"/>
<path d="M0 0 C1.32 0 2.64 0 4 0 C3.67 1.32 3.34 2.64 3 4 C0.69 4.33 -1.62 4.66 -4 5 C-4 4.34 -4 3.68 -4 3 C-5.32 3.33 -6.64 3.66 -8 4 C-7.67 3.34 -7.34 2.68 -7 2 C-5.00714063 1.62633887 -3.00636471 1.29259485 -1 1 C-0.67 0.67 -0.34 0.34 0 0 Z " fill="#E0CEAF" transform="translate(27,6)"/>
<path d="M0 0 C0.33 0.99 0.66 1.98 1 3 C0.01 3.66 -0.98 4.32 -2 5 C-1.34 5 -0.68 5 0 5 C0 6.65 0 8.3 0 10 C-0.66 10 -1.32 10 -2 10 C-2.33 10.66 -2.66 11.32 -3 12 C-3 8.37 -3 4.74 -3 1 C-2.01 0.67 -1.02 0.34 0 0 Z " fill="#AF9D84" transform="translate(9,25)"/>
<path d="M0 0 C1.32 0.99 2.64 1.98 4 3 C1.03 5.475 1.03 5.475 -2 8 C-2.33 6.02 -2.66 4.04 -3 2 C-2.01 1.34 -1.02 0.68 0 0 Z " fill="#AC977F" transform="translate(17,10)"/>
<path d="M0 0 C2.1875 0.3125 2.1875 0.3125 4 1 C4 1.99 4 2.98 4 4 C1.625 4.625 1.625 4.625 -1 5 C-1.66 4.34 -2.32 3.68 -3 3 C-1.75 1.4375 -1.75 1.4375 0 0 Z " fill="#B2B8C2" transform="translate(40,47)"/>
<path d="M0 0 C1.32 0.66 2.64 1.32 4 2 C4 5.33333333 4 8.66666667 4 12 C1.9375 9.75 1.9375 9.75 0 7 C0.375 4.8125 0.375 4.8125 1 3 C0.34 2.34 -0.32 1.68 -1 1 C-0.67 0.67 -0.34 0.34 0 0 Z " fill="#978472" transform="translate(45,7)"/>
<path d="M0 0 C1.134375 0.020625 2.26875 0.04125 3.4375 0.0625 C1.75 2.125 1.75 2.125 -0.5625 4.0625 C-3.3125 3.8125 -3.3125 3.8125 -5.5625 3.0625 C-3.91100715 -0.24048571 -4.06508444 0.07131727 0 0 Z " fill="#B9A488" transform="translate(34.5625,5.9375)"/>
<path d="M0 0 C2.625 0.375 2.625 0.375 5 1 C5 1.66 5 2.32 5 3 C5.66 3.33 6.32 3.66 7 4 C6.34 4 5.68 4 5 4 C4.67 4.99 4.34 5.98 4 7 C3.34 6.67 2.68 6.34 2 6 C2 5.01 2 4.02 2 3 C0.68 2.67 -0.64 2.34 -2 2 C-1.34 1.34 -0.68 0.68 0 0 Z " fill="#525C6B" transform="translate(35,30)"/>
<path d="M0 0 C3.66881155 0.70554068 6.70450534 2.27735506 10 4 C10 4.33 10 4.66 10 5 C4.25 5.125 4.25 5.125 2 4 C2 3.01 2 2.02 2 1 C1.34 0.67 0.68 0.34 0 0 Z " fill="#725B4B" transform="translate(24,53)"/>
<path d="M0 0 C0.66 0.66 1.32 1.32 2 2 C1.01 2.495 1.01 2.495 0 3 C1.32 3.99 2.64 4.98 4 6 C3.34 6 2.68 6 2 6 C1.67 6.66 1.34 7.32 1 8 C0.67 7.01 0.34 6.02 0 5 C-0.99 4.67 -1.98 4.34 -3 4 C-3 3.01 -3 2.02 -3 1 C-2.01 0.67 -1.02 0.34 0 0 Z " fill="#98A3B0" transform="translate(26,27)"/>
<path d="M0 0 C2.64 0.33 5.28 0.66 8 1 C8 1.99 8 2.98 8 4 C6.02 4 4.04 4 2 4 C1.34 2.68 0.68 1.36 0 0 Z " fill="#B3C3D2" transform="translate(41,19)"/>
<path d="M0 0 C1.32 0 2.64 0 4 0 C4.33 1.65 4.66 3.3 5 5 C3.02 5.99 3.02 5.99 1 7 C0.34 6.34 -0.32 5.68 -1 5 C-0.34 4.67 0.32 4.34 1 4 C0.67 2.68 0.34 1.36 0 0 Z " fill="#99969B" transform="translate(29,40)"/>
<path d="M0 0 C1.68762851 1.6454378 3.3540349 3.31288577 5 5 C5 5.33 5 5.66 5 6 C2.69 6 0.38 6 -2 6 C-2 5.01 -2 4.02 -2 3 C-1.34 3 -0.68 3 0 3 C0 2.01 0 1.02 0 0 Z " fill="#BACFDF" transform="translate(36,14)"/>
<path d="M0 0 C0.33 0 0.66 0 1 0 C1.33 4.29 1.66 8.58 2 13 C1.01 12.01 0.02 11.02 -1 10 C-1 9.34 -1 8.68 -1 8 C-1.66 7.67 -2.32 7.34 -3 7 C-2.01 7 -1.02 7 0 7 C0 4.69 0 2.38 0 0 Z " fill="#8C7360" transform="translate(59,28)"/>
<path d="M0 0 C0.66 0.33 1.32 0.66 2 1 C2.625 4.0625 2.625 4.0625 3 7 C2.01 7 1.02 7 0 7 C-0.66 5.35 -1.32 3.7 -2 2 C-1.34 2 -0.68 2 0 2 C0 1.34 0 0.68 0 0 Z " fill="#AB9376" transform="translate(57,17)"/>
<path d="M0 0 C1.65 0 3.3 0 5 0 C2.16569547 3.2542015 0.31392226 4.5206753 -4 5 C-4 4.34 -4 3.68 -4 3 C-2.68 2.67 -1.36 2.34 0 2 C0 1.34 0 0.68 0 0 Z " fill="#7C5C47" transform="translate(46,54)"/>
<path d="M0 0 C2.31 1.65 4.62 3.3 7 5 C5.02 5.99 5.02 5.99 3 7 C2.731875 6.360625 2.46375 5.72125 2.1875 5.0625 C1.11332248 2.66868314 1.11332248 2.66868314 -2 2 C-1.34 2 -0.68 2 0 2 C0 1.34 0 0.68 0 0 Z " fill="#6F5343" transform="translate(10,37)"/>
<path d="M0 0 C2.64 0.99 5.28 1.98 8 3 C6.3125 4.1875 6.3125 4.1875 4 5 C1.25 3.625 1.25 3.625 -1 2 C-0.67 1.34 -0.34 0.68 0 0 Z " fill="#5B4338" transform="translate(44,50)"/>
<path d="M0 0 C0.61875 0.804375 1.2375 1.60875 1.875 2.4375 C3.74164041 5.03874519 3.74164041 5.03874519 6 6 C5.67 6.99 5.34 7.98 5 9 C1.8191658 6.87944386 0.68474722 5.36949443 -1 2 C-0.67 1.34 -0.34 0.68 0 0 Z " fill="#818E9F" transform="translate(25,19)"/>
<path d="M0 0 C0.99 0.99 1.98 1.98 3 3 C2.34 3.66 1.68 4.32 1 5 C0.01 5 -0.98 5 -2 5 C-2 3.68 -2 2.36 -2 1 C-1.34 0.67 -0.68 0.34 0 0 Z " fill="#BEC5CE" transform="translate(25,23)"/>
</svg>
